<svg width="42" height="42" viewBox="0 0 42 42" fill="none" xmlns="http://www.w3.org/2000/svg">
<g id="Group">
<g id="Group_2">
<path id="Vector" d="M35.504 41.9534C37.27 41.8346 39.6426 41.3853 40.5178 40.5102C41.393 39.635 41.8422 37.2624 41.9609 35.4965C42.0939 33.5193 41.9734 30.5655 40.6439 27.7232C40.4263 27.2581 39.9429 26.977 39.431 27.018C36.6423 27.2414 33.9949 28.3286 31.8564 30.109L28.365 26.6189C30.4389 24.8052 32.9014 23.472 35.5536 22.7363C36.2085 22.5547 36.5921 21.8766 36.4104 21.2217C36.2288 20.5668 35.5507 20.1831 34.8958 20.3648C31.835 21.2137 28.9975 22.7639 26.6209 24.8755L23.1345 21.3902C25.1518 19.5533 27.4254 18.0609 29.9084 16.9464C30.5285 16.6681 30.8055 15.9399 30.5272 15.3198C30.2489 14.6998 29.5207 14.4228 28.9006 14.7011C26.1438 15.9386 23.6233 17.6004 21.3922 19.6486L17.9086 16.1663C19.3985 14.7818 21.0104 13.5358 22.7147 12.4541C23.2884 12.09 23.4584 11.3297 23.0941 10.7557C22.7299 10.1819 21.9696 10.0121 21.3957 10.3763C19.5394 11.5547 17.7854 12.914 16.167 14.4254L13.3507 11.6101C14.463 10.129 15.0649 8.33647 15.0649 6.45121C15.0649 4.15043 14.1689 1.98731 12.542 0.360463C12.2211 0.0395388 11.7497 -0.0786748 11.3154 0.0528285C10.881 0.184414 10.5543 0.544223 10.4653 0.989267C9.50589 5.78631 5.78631 9.50573 0.989265 10.4652C0.544303 10.5542 0.184333 10.8809 0.0528292 11.3153C0.0173068 11.4327 -5.04984e-07 11.5527 -5.10191e-07 11.6718C-5.24247e-07 11.9934 0.126251 12.3078 0.360462 12.542C1.98748 14.1689 4.15043 15.0648 6.45121 15.0648C8.33655 15.0648 10.1292 14.4627 11.6104 13.3503L14.4269 16.1658C12.9175 17.7826 11.5602 19.5346 10.3833 21.3885C10.2535 21.593 10.1915 21.8212 10.1915 22.0467C10.1915 22.454 10.3935 22.8524 10.7628 23.0868C11.3365 23.451 12.0969 23.2812 12.4612 22.7073C13.5416 21.0053 14.7858 19.3952 16.1683 17.9066L19.6519 21.3889C17.6055 23.6188 15.945 26.138 14.7082 28.8932C14.6347 29.0569 14.6 29.228 14.6 29.3964C14.6 29.8663 14.8705 30.3149 15.327 30.5198C15.947 30.7981 16.6752 30.5211 16.9535 29.901C18.0675 27.4193 19.5587 25.147 21.3942 23.1306L24.8806 26.6158C22.7701 28.9919 21.2205 31.8286 20.3719 34.8884C20.3414 34.9984 20.3269 35.109 20.3269 35.218C20.3269 35.7571 20.6841 36.252 21.2289 36.403C21.8838 36.5847 22.5619 36.2011 22.7435 35.5462C23.4789 32.8947 24.8117 30.4329 26.6246 28.3592L30.1159 31.8492C28.3356 33.9877 27.2486 36.635 27.0252 39.4237C27.0226 39.4567 27.0213 39.4896 27.0213 39.5223C27.0213 39.9967 27.2954 40.433 27.7305 40.6365C30.573 41.9659 33.5267 42.0864 35.504 41.9534ZM34.427 36.1596C33.9465 35.6791 33.9465 34.9 34.427 34.4194C34.9076 33.9389 35.6867 33.9389 36.1673 34.4194C36.6478 34.9 36.6478 35.6791 36.1673 36.1596C35.6867 36.6402 34.9075 36.6402 34.427 36.1596Z" fill="#F3F3F3"/>
</g>
</g>
</svg>
