<svg width="59" height="66" viewBox="0 0 59 66" fill="none" xmlns="http://www.w3.org/2000/svg">
<path id="Vector" d="M56.6526 6.72203L50.2189 0.328305C49.7784 -0.109435 49.0641 -0.109435 48.6235 0.328305C48.1829 0.766045 48.183 1.47587 48.6235 1.91361L55.0573 8.3072C57.3075 10.5434 57.3075 14.1819 55.0573 16.4183C53.9779 17.4909 52.5248 18.0679 50.9728 18.0468C49.4186 18.0243 47.9562 17.4094 46.8553 16.3154L38.4118 7.92446C35.282 4.81399 30.1964 4.807 27.0753 7.90863C23.9455 11.019 23.9455 16.08 27.0753 19.1903L30.1027 22.1988C27.7385 21.3834 25.2282 20.9575 22.6518 20.9575C16.5985 20.9575 10.9074 23.3001 6.62704 27.5539C-2.20901 36.335 -2.20901 50.6227 6.62704 59.4037C10.9074 63.6574 16.5983 66 22.6518 66C28.705 66 34.3961 63.6574 38.6765 59.4037C42.9568 55.15 45.3141 49.4945 45.3141 43.4787C45.3141 37.463 42.9568 31.8075 38.6765 27.5538C38.5759 27.4538 38.4737 27.3558 38.3715 27.258L28.6705 17.6047C26.4205 15.3685 26.4205 11.7301 28.6705 9.49381C30.9121 7.26633 34.5662 7.27346 36.8165 9.50964L45.26 17.9006C46.7782 19.4094 48.7954 20.2574 50.9399 20.2884C53.1062 20.3181 55.1382 19.5084 56.6525 18.0034C59.7825 14.8934 59.7825 9.83237 56.6526 6.72203ZM33.7843 26.477C31.0572 26.7071 28.4017 27.2829 25.8712 28.1865C25.8181 28.1596 25.763 28.1354 25.7045 28.1167C20.7809 26.5418 15.6241 26.2079 10.5947 27.1138C14.0714 24.5728 18.2553 23.1996 22.6518 23.1996C26.6655 23.1997 30.5013 24.3448 33.7843 26.477ZM10.7428 39.7463C7.95672 39.66 5.17713 39.9446 2.46097 40.5962C2.63231 39.4006 2.91181 38.2178 3.29748 37.0625C3.31739 37.0567 3.33743 37.0514 3.3572 37.0445C7.31929 35.6676 10.8097 35.1416 14.4253 35.3939C14.3967 35.422 14.3675 35.4492 14.3393 35.4774C13.0018 36.8066 11.8016 38.2356 10.7428 39.7463ZM16.6713 33.3779C16.6686 33.3775 16.6659 33.3767 16.6632 33.3763C12.5407 32.7883 8.70019 33.0847 4.43339 34.3428C5.17912 32.8716 6.11609 31.4725 7.24497 30.1826C12.0555 28.7925 17.5799 28.5348 22.5457 29.5981C20.4659 30.6271 18.4963 31.8911 16.6713 33.3779ZM2.26217 42.9615C4.57394 42.3441 6.93946 42.0144 9.31785 41.9769C7.14861 45.7157 5.79147 49.8676 5.33758 54.2153C3.18772 50.7921 2.16276 46.8651 2.26217 42.9615ZM7.42838 56.9823C7.55698 49.4561 10.5648 42.3992 15.9346 37.0629C21.3453 31.686 28.8748 28.6923 36.5236 28.6074C36.7119 28.7813 36.8984 28.9577 37.0811 29.1394C37.8583 29.9117 38.5637 30.7361 39.1969 31.6034C24.0116 32.7771 11.8619 44.6907 10.4771 59.7578C9.6864 59.1713 8.93271 58.5243 8.22241 57.8184C7.94796 57.5456 7.68399 57.2664 7.42838 56.9823ZM42.0254 37.0779C35.1984 37.9638 29.1678 40.738 24.5262 45.1432C19.6892 49.7338 16.7373 55.7696 15.9528 62.6437C14.8062 62.2488 13.6975 61.753 12.6385 61.1586C13.3921 46.2166 25.5254 34.319 40.5767 33.7701C41.1589 34.8284 41.6441 35.9344 42.0254 37.0779ZM41.4494 51.3951C39.7322 47.6501 37.2739 44.2701 34.2439 41.4801C35.7508 40.8369 37.3383 40.3112 38.9961 39.913C40.5576 41.89 41.8512 44.0663 42.8493 46.3911C42.6002 48.1239 42.1287 49.8028 41.4494 51.3951ZM42.9814 41.7218C42.5062 40.9341 41.9966 40.1677 41.453 39.4253C41.8379 39.3645 42.2263 39.3112 42.6176 39.2637C42.7884 40.0703 42.9101 40.8908 42.9814 41.7218ZM31.3019 51.4493C33.2654 53.5982 34.8966 56.0389 36.1356 58.6993C32.869 61.5651 28.8257 63.2915 24.4997 63.6751C25.1321 58.5939 27.6162 54.1194 31.3019 51.4493ZM22.2212 63.7527C20.8377 63.7245 19.4768 63.5608 18.1544 63.2667C18.8187 56.766 21.6406 51.113 26.0065 46.904C27.3243 47.7843 28.56 48.7651 29.7048 49.8354C25.5816 52.9519 22.843 58.0396 22.2212 63.7527ZM37.8327 57.0304C35.5096 52.3638 32.0488 48.3615 27.7448 45.3703C29.0692 44.3015 30.5072 43.3509 32.0462 42.5315C35.623 45.6244 38.4059 49.5815 40.1025 54.0034C39.4477 55.0713 38.6896 56.0846 37.8327 57.0304Z" fill="#F3F3F3"/>
</svg>
