<svg width="64" height="62" viewBox="0 0 64 62" fill="none" xmlns="http://www.w3.org/2000/svg">
<g id="pet">
<path id="Vector" d="M39.929 28.0234C36.2907 26.1424 32.0011 26.2415 28.4543 28.2892C24.9076 30.3369 22.6769 34.0023 22.4871 38.0935L22.029 47.9523C21.9529 49.5879 22.3961 51.1711 23.31 52.5298C24.224 53.8889 25.5232 54.8957 27.0675 55.4425C28.6118 55.988 30.2556 56.0213 31.821 55.539C33.3864 55.0567 34.7262 54.1032 35.6954 52.7824L35.7601 52.6936C38.2155 49.3987 41.9577 47.2555 46.0452 46.807C47.0995 46.6911 48.0984 46.3637 48.9974 45.8447C49.4862 45.5625 49.9458 45.2231 50.3689 44.8308C51.5695 43.7166 52.3625 42.2764 52.6624 40.6657C52.9619 39.0557 52.7397 37.4266 52.0199 35.955C51.3001 34.4834 50.1507 33.3082 48.6959 32.5557L39.929 28.0234Z" fill="#F3F3F3"/>
<path id="Vector_2" d="M19.1115 40.0299C20.1794 38.7105 20.5835 37.0029 20.249 35.2214C19.931 33.526 18.9719 31.9585 17.5478 30.8074C16.124 29.6574 14.3903 29.0486 12.6658 29.0926C10.8544 29.1392 9.26922 29.8917 8.20415 31.2107C6.05982 33.8616 6.76142 37.9977 9.76943 40.4323C12.1671 42.368 15.3137 42.647 17.5774 41.3401C18.1555 41.0063 18.6759 40.5691 19.1115 40.0299Z" fill="#F3F3F3"/>
<path id="Vector_3" d="M24.8066 29.225C28.2521 27.2358 29.2114 22.4238 26.945 18.4983C24.6781 14.5718 20.0307 12.9959 16.5852 14.9852C13.14 16.9742 12.1814 21.7867 14.4483 25.7132C16.7147 29.6387 21.3614 31.2141 24.8066 29.225Z" fill="#F3F3F3"/>
<path id="Vector_4" d="M36.6079 24.7436L36.6082 24.7434C37.2398 24.6134 37.829 24.3852 38.3674 24.0744C40.8801 22.6237 42.273 19.381 41.5847 16.0309C41.1887 14.1023 40.1656 12.412 38.7041 11.2717C37.1744 10.0777 35.3535 9.62133 33.5763 9.98657C31.7989 10.352 30.3055 11.4898 29.3706 13.1902C28.4775 14.8145 28.2042 16.7712 28.6009 18.6994C29.4371 22.7674 33.029 25.4788 36.6079 24.7436Z" fill="#F3F3F3"/>
<path id="Vector_5" d="M49.2873 16.3154L49.2857 16.315C45.8963 15.9316 42.782 18.744 42.3433 22.5855C41.9073 26.4273 44.3084 29.8673 47.6951 30.2541C48.9304 30.3955 50.1296 30.1116 51.176 29.5075C52.9997 28.4546 54.3596 26.4283 54.6397 23.9844C55.0754 20.1428 52.6746 16.7026 49.2873 16.3154Z" fill="#F3F3F3"/>
</g>
</svg>
